<?xml version="1.0" encoding="UTF-8" standalone="no"?>
<svg
   version="1.1"
   width="2.6036in"
   height="0.7486in"
   viewBox="0 0 187.4563 53.8957"
   id="svg2"
   sodipodi:docname="3second.cdr"
   xmlns:inkscape="http://www.inkscape.org/namespaces/inkscape"
   xmlns:sodipodi="http://sodipodi.sourceforge.net/DTD/sodipodi-0.dtd"
   xmlns="http://www.w3.org/2000/svg"
   xmlns:svg="http://www.w3.org/2000/svg">
  <defs
     id="defs2" />
  <sodipodi:namedview
     id="namedview2"
     pagecolor="#ffffff"
     bordercolor="#000000"
     borderopacity="0.25"
     inkscape:showpageshadow="2"
     inkscape:pageopacity="0.0"
     inkscape:pagecheckerboard="0"
     inkscape:deskcolor="#d1d1d1"
     inkscape:document-units="in" />
  <g
     id="Layer1000">
    <path
       d="  M29.4976,27.7924 C30.7028,27.1712 36.5134,29.0704 38.0466,28.0726 C38.8441,27.5536 39.4479,25.7671 39.0535,24.6524 C38.6278,23.4495 37.3724,23.2957 35.9933,22.9281 C30.9167,21.5751 25.9687,20.1038 20.9576,18.7746 C17.9275,17.9708 17.8749,20.3846 16.9989,24.1853 C16.3950,26.8055 17.9271,27.0168 21.2337,29.3807 C21.9041,29.8600 23.8679,30.8084 22.8497,31.8672 C22.2704,32.4697 19.4153,32.1902 18.3928,32.1902 C15.1933,32.1902 11.9995,32.2199 8.8005,32.2199 C-1.7612,32.2199 -0.8946,31.3128 1.6175,41.0360 C2.0218,42.6008 2.2419,43.5731 3.9998,43.5271 C5.0708,43.4991 7.0242,43.0215 8.1602,42.8260 C15.6651,41.5346 26.0125,39.9619 32.8068,38.5074 C34.4091,38.1644 34.4892,37.4095 34.8260,35.7538 C35.0734,34.5372 35.6924,32.9773 34.8875,31.9605 C34.0016,30.8414 29.8188,28.6663 29.4976,27.7924 Z Z M13.9724,0.0707 C12.3535,0.5799 12.3744,2.4438 12.0044,4.2373 C10.5853,11.1170 9.6943,11.3184 13.4469,12.6304 C14.9831,13.1675 16.4029,13.6579 17.9640,14.2148 L36.1137,20.4651 C38.2424,20.6968 38.3566,18.7116 38.7485,16.9801 C39.3309,14.4075 39.0161,14.1455 37.1875,13.0550 L18.0788,1.7205 C17.0511,1.1123 15.2607,-0.3346 13.9724,0.0707 Z Z M33.3908,42.5499 C33.8459,40.2376 32.5841,40.7620 30.8647,41.1851 L12.1252,45.6947 C8.5056,46.5461 9.0733,46.0400 10.2611,51.2300 C10.5636,52.5517 10.5749,54.2602 12.1346,53.8270 L28.9728,47.4239 C32.8957,45.8943 32.5224,46.9616 33.3908,42.5499 Z"
       style="fill-rule: evenodd; fill: #e6564b; "
       id="path1" />
    <path
       d="  M175.2107,23.5497 C176.0803,22.9806 177.8053,23.3651 178.4899,23.7475 C181.6921,25.5363 181.5703,32.5859 176.1294,32.1434 C174.7777,32.0335 174.5267,31.5646 174.4534,30.2009 C174.3729,28.7034 174.0428,24.3139 175.2107,23.5497 Z Z M186.3954,23.2312 C184.5242,18.7880 180.2223,16.7471 175.1906,16.8226 C173.0450,16.8549 170.2722,16.7320 168.2247,16.9746 C167.3719,18.1248 167.7235,20.1181 167.7210,21.8895 C167.7175,24.3033 167.4841,37.0837 167.8061,37.6925 C168.0551,38.1215 167.7742,37.9017 168.3139,38.1963 C168.8296,38.4778 170.1895,38.4243 170.7621,38.4269 C176.5738,38.4534 183.3787,39.5598 186.4665,32.4250 C187.8366,28.2202 187.7571,27.2773 186.3954,23.2312 Z Z M130.5493,32.3386 C124.8400,32.3313 124.9298,23.1445 130.5402,23.2369 C136.3476,23.3324 136.0417,32.3456 130.5493,32.3386 Z Z M141.5293,29.4526 C142.1195,26.5399 140.7870,22.5274 139.3638,20.8238 C137.7285,18.8661 135.8786,17.3975 132.2347,16.8589 C125.1736,15.8153 121.0482,20.2883 119.6410,25.9171 C119.3142,27.2247 119.5388,29.6020 119.7960,30.9950 C120.1219,32.7604 121.9182,35.2609 123.0104,36.0693 C123.5418,36.4625 124.1008,36.8124 124.6504,37.1973 C128.1296,39.6344 134.9888,38.8728 137.6549,36.5601 C139.8009,34.6986 140.7591,33.2532 141.5293,29.4526 Z Z M55.4264,25.2385 C54.4519,25.2385 54.4519,26.0360 54.4519,26.2508 C54.4519,26.5575 54.5299,27.8765 54.5299,28.1526 C54.5299,28.8581 54.5299,28.9501 54.5689,29.0729 C54.6468,29.1649 55.0366,29.6250 55.5823,29.6250 C55.7383,29.6250 56.4789,29.5637 56.5958,29.5637 C59.0905,29.5637 59.4803,31.0667 59.4803,31.4042 C59.4803,32.7232 58.3499,33.6741 56.6738,33.6741 C55.8552,33.6741 54.9977,33.1833 54.3350,32.6005 C54.1790,32.4471 54.0621,32.2937 53.8672,32.1097 C53.6334,31.8950 53.3995,31.7415 52.9707,31.7415 C52.3860,31.7415 52.1910,31.9256 50.3980,33.7048 C49.5405,34.5636 49.4625,34.7477 49.4625,35.0544 C49.4625,36.0054 50.8268,36.9563 51.5285,37.3857 C53.2046,38.4287 54.3740,38.8581 56.8687,38.8581 C58.4669,38.8581 58.6227,38.8275 59.9091,38.5821 C62.2479,38.0606 62.7935,37.6618 63.8850,36.7723 C65.6391,35.2692 66.3797,34.4716 66.3797,32.0790 C66.3797,30.8520 66.3797,29.9624 65.1714,28.5821 C65.0154,28.4593 64.7036,28.0913 64.0799,27.6925 C63.8460,27.5084 63.5732,27.3551 63.3783,27.1710 C63.2613,27.0176 63.2224,26.8642 63.2224,26.7416 C63.2224,26.4655 63.3003,26.3734 63.8460,25.9133 C64.5087,25.3918 65.5612,24.5023 65.5612,22.2323 C65.5612,21.7415 65.5612,20.4839 64.1189,18.7661 C63.1834,17.6311 61.7801,17.2630 61.0395,17.0790 C60.1040,16.8336 59.3244,16.6495 58.1550,16.6495 C57.1025,16.6495 55.5433,16.8949 54.9587,17.0483 C54.2180,17.2630 53.3995,17.6311 52.6978,18.1219 C52.2300,18.4593 51.4505,18.9808 50.9437,19.3489 C50.4370,19.7170 49.9303,20.1465 49.9303,20.6066 C49.9303,20.7293 49.9693,20.8520 50.0472,20.9747 C50.2031,21.1587 50.4370,21.3735 50.6319,21.5575 C50.7878,21.7109 50.9048,21.8642 51.0607,22.0176 C51.2166,22.2017 51.9962,22.9379 52.1521,23.0912 C52.5029,23.4900 52.7758,23.7661 53.2825,23.7661 C53.6334,23.7661 53.9062,23.6127 54.1401,23.3980 C54.2570,23.2446 54.3740,23.1219 54.4909,22.9686 C54.6468,22.8151 55.5823,21.8949 57.0246,21.8949 C58.5448,21.8949 58.9736,22.7845 58.9736,23.3673 C58.9736,23.7661 58.7007,24.6863 57.6873,25.0544 C57.1415,25.2385 56.3230,25.2385 56.1281,25.2385 L55.4264,25.2385 Z Z M69.3985,23.2140 C69.3985,24.4716 69.3985,25.2385 70.2595,26.4962 C70.8584,27.3857 71.4198,27.8459 72.3557,28.5514 C72.6551,28.7354 73.8155,29.7170 74.0401,29.9011 C76.3608,31.7109 76.6603,31.9256 76.6603,32.6005 C76.6603,33.5514 75.4999,33.7354 74.4518,33.7354 C73.7032,33.7354 72.9920,33.6127 72.6551,33.4287 C72.4305,33.3060 72.2060,33.1219 71.9814,32.9686 C71.5321,32.6618 71.1578,32.6005 70.5215,32.6005 C69.1740,32.6005 69.1740,33.6127 69.1740,33.9808 C69.1740,34.1956 69.2488,35.1772 69.2488,35.3612 C69.2488,35.6680 69.1365,37.0177 69.1365,37.2937 C69.1365,37.6005 69.1365,37.8765 69.7728,38.2447 C70.5589,38.7048 72.9920,38.9502 74.6016,38.9502 C75.7620,38.9502 77.7459,38.8275 78.7566,38.6127 C79.5801,38.4287 81.5265,37.8459 82.7618,36.3121 C83.7350,35.1158 83.7725,33.6741 83.7725,32.2630 C83.7725,30.3305 83.2483,29.0729 80.7404,27.0790 C80.5158,26.8949 80.2912,26.7416 80.0293,26.5575 C79.6549,26.2815 79.0560,25.7906 78.6443,25.4839 C77.0347,24.2876 76.4358,23.8581 76.4358,23.0299 C76.4358,21.9563 77.6336,21.9256 78.0828,21.9256 C78.3822,21.9256 78.8314,21.9256 79.3928,22.0483 C79.9169,22.1710 80.4036,22.3243 80.8902,22.3857 L81.1522,22.3857 C82.4249,22.3857 82.5746,21.5575 82.5746,21.2201 C82.5746,21.0360 82.5372,20.2998 82.5372,20.1465 C82.5372,19.8090 82.6120,18.0606 82.6120,17.9992 C82.6120,16.6802 80.5158,16.6802 77.4090,16.6802 C76.0989,16.6802 74.5267,16.7722 72.8422,17.3857 C71.5696,17.8765 70.5964,18.7968 70.0349,19.8704 C69.6605,20.5759 69.3985,21.5268 69.3985,23.2140 Z Z M97.4400,16.9562 C97.2062,16.9562 96.1537,17.0176 95.9588,17.0176 C95.4520,17.0176 93.1522,16.9562 92.6845,16.9562 L90.6575,16.9562 C90.5016,16.9562 89.9949,16.9256 89.5271,16.8949 C89.0204,16.8949 88.5526,16.8642 88.3577,16.8642 C86.3698,16.8642 86.3698,17.7231 86.3698,19.2262 C86.3698,19.5943 86.4088,21.2201 86.4088,21.5575 C86.4088,22.6311 86.3307,23.7354 86.3307,24.8090 C86.3307,25.2692 86.4088,27.3551 86.4088,27.7538 C86.4088,28.1833 86.3698,30.0186 86.3698,30.3868 C86.3698,30.6015 86.4088,31.5729 86.4088,31.7876 C86.4088,32.0023 86.2918,33.0043 86.2918,33.2191 C86.2918,33.4951 86.3307,34.8397 86.3307,35.1158 C86.3307,35.6373 86.3307,36.4041 86.2528,37.0483 C86.2528,37.1710 86.2138,37.2937 86.2138,37.4164 C86.2138,38.0606 86.8765,38.6127 87.8120,38.6127 C88.0459,38.6127 89.0593,38.5821 89.2932,38.5821 C89.6441,38.5821 91.3591,38.5514 91.7100,38.5514 C91.9049,38.5514 92.8404,38.5821 93.0353,38.5821 C93.2692,38.5821 94.2437,38.5514 94.4385,38.5514 C95.2571,38.5514 96.0757,38.6127 96.8943,38.6127 C97.1281,38.6127 98.0247,38.5821 98.2196,38.5821 C98.4145,38.5821 99.3890,38.6434 99.5839,38.6434 C100.0517,38.6434 100.9872,38.4287 100.9872,37.4164 C100.9872,37.2017 100.9482,36.2815 100.9482,36.0974 C100.9482,35.8827 100.9482,35.5452 100.9872,35.2079 C101.0262,35.0238 101.0262,34.8397 101.0262,34.6557 C101.0262,33.7968 100.0906,33.5565 99.5839,33.5565 C99.3111,33.5565 99.0772,33.5820 98.8043,33.6127 C98.5314,33.6434 98.2196,33.6434 97.9078,33.6434 C97.6349,33.6434 97.3620,33.6434 97.0892,33.6127 C96.7384,33.5820 96.3486,33.5258 95.9588,33.4951 C95.4520,33.4951 94.8284,33.4951 94.3996,33.4031 C93.4251,33.1884 93.4251,32.6413 93.4251,32.0330 C93.4251,31.1792 93.4251,30.7191 93.6200,30.4481 C94.0098,29.9011 94.8284,29.8704 95.4520,29.8704 C95.9198,29.8704 98.1806,29.9880 98.6094,29.9880 C99.1941,29.9880 99.7788,29.9880 100.1686,29.2876 C100.2466,29.1649 100.2855,29.0115 100.2855,28.7354 C100.2855,28.5207 100.2076,27.6311 100.2076,27.4471 C100.2076,27.2324 100.2855,26.3428 100.2855,26.1587 C100.2855,25.2998 99.9348,24.9317 98.7653,24.9317 C98.5705,24.9317 97.6739,24.9624 97.5180,24.9624 C97.2451,24.9624 96.1537,24.9010 95.9198,24.9010 C95.7249,24.9010 94.9063,24.9624 94.7504,24.9624 C93.3861,24.9624 93.3861,23.7661 93.3861,23.4594 C93.3861,22.6004 93.3861,22.5084 93.5421,22.3243 C93.7759,22.0483 94.2046,21.8029 95.6859,21.8029 C95.9588,21.8029 97.0892,21.8949 97.3231,21.8949 C97.5180,21.8949 98.3756,21.8336 98.5314,21.8336 C98.6484,21.8336 99.0772,21.8642 99.1941,21.8336 C100.5194,21.7415 100.5974,21.0360 100.5974,20.6066 C100.5974,20.4225 100.5584,19.6863 100.5584,19.5636 C100.5584,19.2875 100.6753,18.1219 100.6753,17.8765 C100.6753,17.2937 100.2076,16.9256 99.5060,16.9256 C99.3111,16.9256 98.4535,16.9562 98.2586,16.9562 L97.4400,16.9562 Z Z M102.6699,27.2630 C102.6699,27.6005 102.6699,27.9379 102.7104,28.2753 C102.7510,28.7661 102.7914,29.2876 102.8725,29.8091 C103.0345,32.0483 103.0751,32.3551 104.4121,34.5636 C104.7768,35.0851 104.8578,35.1772 105.6276,35.9134 C106.4380,36.6802 107.1267,37.3244 108.4637,37.9379 C109.1120,38.2140 109.2336,38.2447 110.2871,38.4594 C110.6516,38.5207 111.0163,38.6434 111.3810,38.7048 C111.8266,38.7661 112.0293,38.7661 113.8119,38.7968 C114.2981,38.8275 114.7438,38.8581 115.2300,38.8581 C116.2429,38.8581 116.8101,38.4287 116.8101,37.5698 C116.8101,37.3857 116.7697,37.2017 116.7697,37.0177 C116.7291,36.4962 116.7291,36.0054 116.7291,35.4839 C116.7291,35.2385 116.8101,34.1956 116.8101,33.9808 C116.8101,33.5514 116.8101,33.2446 116.2429,32.9686 C115.9998,32.8459 115.8378,32.8459 115.7567,32.8459 C115.5541,32.8459 114.8248,32.9686 114.6628,32.9686 C113.9335,32.9686 112.2723,32.3551 111.5835,31.7109 C110.3275,30.5759 110.2871,28.6127 110.2871,28.0913 C110.2871,27.5698 110.4085,26.3121 110.5707,25.5452 C110.7732,24.8090 111.1783,23.9808 111.9482,23.4900 C112.3534,23.2446 113.8525,22.8458 114.1766,22.8458 C114.4197,22.8458 114.6628,22.9072 114.9464,22.9379 C115.1085,22.9686 115.3111,22.9992 115.5137,22.9992 C116.1619,22.9992 116.8507,22.6618 116.8507,21.9563 C116.8507,21.5575 116.8101,19.8704 116.8101,19.5329 C116.8101,19.1342 116.8101,18.7354 116.8507,18.3367 C116.8507,18.1832 116.8912,17.9992 116.8912,17.8459 C116.8912,17.6311 116.8912,17.1403 116.2429,16.8642 C115.9188,16.7108 114.7033,16.7108 114.2981,16.7108 C112.7180,16.7108 110.3275,17.0176 109.1931,17.4777 C109.0310,17.5391 106.7621,18.7047 106.2354,19.0115 C104.5742,20.0851 103.7233,21.6802 103.2371,23.3980 C102.9940,24.3489 102.6699,25.6066 102.6699,27.2630 Z Z M143.9878,33.3673 C144.0304,33.4900 144.0731,34.0728 144.0731,34.1956 C144.0731,34.3489 143.7744,37.1097 143.7744,37.6618 C143.7744,37.8765 143.7744,38.6434 144.9265,38.6434 C145.1398,38.6434 145.3105,38.6434 145.4812,38.6127 C145.9932,38.5821 146.5053,38.5514 147.0174,38.5514 C147.5293,38.5514 149.7482,38.6127 150.1748,38.6127 C150.8576,38.6127 151.4549,38.3980 151.4549,37.7539 C151.4549,37.3551 151.2416,35.5146 151.2416,35.1465 C151.2416,34.2569 151.3697,33.3673 151.3697,32.4778 C151.3697,31.7722 151.1989,30.3305 151.1563,30.1158 C151.1137,29.8397 151.0283,29.4716 151.0283,29.2876 C151.0283,29.1649 151.1137,29.0115 151.1989,29.0115 C151.3697,29.0115 151.5403,29.3796 152.0524,30.4532 C152.2657,30.8827 152.4363,31.3121 152.6924,31.7415 C152.8630,32.0483 153.1191,32.3858 153.3324,32.6925 C153.6311,33.1219 153.8871,33.5820 154.1005,34.0115 C154.2285,34.3182 154.3565,34.6250 154.5272,34.9625 C154.7832,35.4226 155.1673,35.9440 155.5086,36.4348 C155.7219,36.8029 155.9780,37.1710 156.1060,37.5391 C156.2766,37.9379 156.5753,38.5514 157.3007,38.5514 C157.7274,38.5514 159.8182,38.4901 160.2450,38.4901 C160.5863,38.4901 162.0370,38.5514 162.3784,38.5514 C163.1038,38.5514 163.1891,38.5514 163.4025,38.4594 C163.9571,38.2447 163.9571,37.9072 163.9571,37.8152 C163.9571,37.6618 163.8292,36.9870 163.8292,36.8336 C163.7865,36.3121 163.7438,35.7907 163.7438,35.2692 C163.7438,34.7170 163.9571,32.2324 163.9571,31.7415 C163.9571,31.1588 163.7865,28.5514 163.7865,28.0299 C163.7865,27.5698 163.8292,27.1097 163.8292,26.6495 C163.8719,25.6372 163.9146,24.6250 163.9146,23.9808 C163.9146,23.3980 163.7865,20.8827 163.7865,20.3919 C163.7865,20.1158 163.8719,18.5207 163.9571,18.2139 C163.9571,18.0606 163.9998,17.9378 163.9998,17.8152 C163.9998,17.3550 163.5732,17.1096 163.4025,17.0483 C163.2745,16.9869 163.1038,16.9869 162.8477,16.9869 C162.6344,16.9869 161.6957,17.0176 161.4824,17.0176 C161.0130,17.0176 159.3488,17.0176 158.9648,16.9869 C158.7088,16.9869 158.4527,16.9562 158.2394,16.9562 C157.2154,16.9562 156.7460,17.4470 156.6607,17.5698 C156.4899,17.8152 156.4899,18.7047 156.4899,18.9808 C156.4899,19.5636 156.7033,22.0483 156.7033,22.5697 C156.7033,22.7845 156.6180,23.7048 156.6180,23.8888 C156.6180,23.9502 156.6607,24.2569 156.7033,24.4409 C156.7033,24.6557 156.7460,24.8704 156.7460,25.0851 C156.7460,25.3612 156.7460,26.2815 156.5327,26.2815 C156.4474,26.2815 156.2766,26.1587 156.1486,25.8213 C155.8926,25.2998 155.3806,24.1035 154.9965,23.4594 C154.8685,23.2753 154.6979,23.0912 154.6125,22.9072 C154.4418,22.6004 154.3138,22.3243 154.1432,22.0176 C154.0152,21.8029 153.8444,21.5882 153.6738,21.3735 C153.6311,21.3121 152.8630,20.0851 152.8630,20.0237 C152.7777,19.9011 152.7350,19.7477 152.6497,19.6250 C152.2657,18.8274 151.3697,17.5698 151.1989,17.3857 C151.1137,17.2630 150.8149,16.9562 150.1321,16.9562 C149.9188,16.9562 148.0414,17.0483 147.6573,17.0483 C147.4866,17.0483 146.1639,17.0483 145.9932,17.0176 C145.6946,17.0176 145.4385,16.9562 145.1398,16.9562 C144.1584,16.9562 143.9451,17.5391 143.9451,17.8152 C143.9451,18.3060 144.0731,20.4532 144.0731,20.8827 C144.0731,21.0974 144.0731,21.6189 144.0304,22.2630 C143.9878,22.8765 143.9878,23.4900 143.9878,24.1035 C143.9878,24.3796 143.9878,25.4839 144.0304,26.0360 C144.0304,26.1894 144.1158,27.1710 144.1158,27.2324 C144.1158,27.6618 144.0731,28.0913 144.0304,28.5207 C143.9878,29.2262 143.9451,30.0545 143.9451,30.7906 C143.9451,31.0360 143.9878,32.1710 143.9878,32.4164 L143.9878,33.3673 Z"
       style="fill-rule: evenodd; fill: #e6564b; "
       id="path2" />
  </g>
</svg>
