<?xml version="1.0" encoding="UTF-8"?>
<!DOCTYPE svg PUBLIC "-//W3C//DTD SVG 1.1//EN" "http://www.w3.org/Graphics/SVG/1.1/DTD/svg11.dtd">
<!-- Creator: CorelDRAW X7 -->
<svg xmlns="http://www.w3.org/2000/svg" xml:space="preserve" width="5.90551in" height="5.90551in" version="1.1" style="shape-rendering:geometricPrecision; text-rendering:geometricPrecision; image-rendering:optimizeQuality; fill-rule:evenodd; clip-rule:evenodd"
viewBox="0 0 5906 5906"
 xmlns:xlink="http://www.w3.org/1999/xlink">
 <defs>
  <style type="text/css">
   <![CDATA[
    .fil0 {fill:#003142}
   ]]>
  </style>
 </defs>
 <g id="Layer_x0020_1">
  <metadata id="CorelCorpID_0Corel-Layer"/>
  <path class="fil0" d="M1326 2166c103,0 187,84 187,187 0,103 -84,187 -187,187 7,1 10,1 10,1 182,32 176,187 176,187l-284 2c-76,1 -204,75 -251,136 0,0 -54,36 -164,213 -110,176 -133,176 -133,176l0 0c-31,22 -69,36 -111,36 -103,0 -186,-84 -186,-187 0,-103 83,-187 186,-187 -6,-1 -10,-1 -10,-1 -182,-32 -175,-187 -175,-187l283 -2c76,-1 204,-74 252,-136 0,0 54,-36 163,-213 110,-176 134,-176 134,-176l0 0c31,-22 69,-36 110,-36zm542 546l356 0c96,0 172,78 169,174l-1 34c0,30 -9,58 -23,83 31,31 50,76 47,125l-2 35c-5,95 -88,173 -184,173l-362 0 0 -624zm152 364l199 0c34,0 63,29 63,64l0 6c0,34 -29,63 -63,63l-199 0 0 -133zm0 -248l172 0c34,0 62,29 62,63l0 1c0,34 -28,62 -62,62l-172 0 0 -126zm582 -118l296 0c130,0 236,106 236,236l0 0c0,86 -46,161 -114,202l137 189 -190 0 -100 -155 -117 0 0 155 -148 0 0 -155 0 -139 0 -184 0 -44 0 -105zm148 333l135 0c51,0 92,-41 92,-92l0 0c0,-50 -41,-92 -92,-92l-135 0 0 184zm841 -353c184,0 333,149 333,333 0,184 -149,333 -333,333 -184,0 -333,-149 -333,-333 0,-184 149,-333 333,-333zm0 144c104,0 189,85 189,189 0,105 -85,189 -189,189 -105,0 -189,-84 -189,-189 0,-104 84,-189 189,-189zm511 -130l291 0c174,0 316,142 316,316l0 0c0,174 -142,316 -316,316l-291 0c0,-211 0,-421 0,-632zm152 488l139 0c95,0 172,-77 172,-172l0 0c0,-94 -77,-172 -172,-172l-139 0 0 344zm936 -505c184,0 333,149 333,333 0,184 -149,333 -333,333 -184,0 -333,-149 -333,-333 0,-184 149,-333 333,-333zm0 144c104,0 189,85 189,189 0,105 -85,189 -189,189 -105,0 -189,-84 -189,-189 0,-104 84,-189 189,-189zm-4462 436c0,0 425,46 631,472 86,-118 55,-358 -14,-473 -22,-38 -99,-175 -85,-287 17,-131 163,-156 163,-156 0,0 -134,-104 -291,-26 -158,78 -295,317 -295,317 0,0 -82,124 -109,153zm704 -286c41,11 72,49 72,93 0,53 -43,96 -96,96 -121,0 -134,-198 -62,-264 13,41 47,65 86,75z"/>
 </g>
</svg>
