<?xml version="1.0" encoding="UTF-8"?>
<svg id="Layer_1" data-name="Layer 1" xmlns="http://www.w3.org/2000/svg" viewBox="0 0 950 950">
  <defs>
    <style>
      .cls-1 {
        fill: #1d1819;
        fill-rule: evenodd;
      }
    </style>
  </defs>
  <path class="cls-1" d="m648.95,489.52s28.34-79.29,35.88-95.43c7.53-16.14,15.57-28.34,15.57-28.34,0,0-40.33-32-83.45-31.72s-79,48.94-94,83.45c-15,34.44-18.58,42.26-18.58,42.26,0,0-26.76,44.78-32.58,35.3s5.31-53.96,19.73-75.92c14.49-21.96,21.45-30.57,21.45-30.57,0,0-3.95-13.2-15.57-22.1-11.7-8.9-37.17-9.18-37.17-9.18,0,0-28.92,63.22-36.45,85.25-7.46,21.96-33.87,68.67-46.43,61.71-12.49-6.96,11.98-66.73,15.86-73.69s2.8-16.14-9.76-27.84c-12.49-11.62-38.89-16.07-38.6-30.57.29-14.42,8.04-38.1-8.4-38.39-16.36-.29-39.75,21.45-40.33,41.76-.5,20.23-1.65,31.14-6.89,40.54-5.31,9.47-21.74,83.74-92.06,104.91-70.39,21.1-96.8,2.22-96.22-20.59.5-22.82,41.98-40.9,63.65-47,21.74-6.17,20.31-5.88,21.96-20.02,1.72-14.21-3.87-14.49-11.91-14.49s-43.41,5.02-37.82-25.04c5.53-29.99,63.93-100.1,93.86-98.16,0,0,8.04,1.94,3.01,12.27-4.95,10.26-36.67,51.45-40.33,64.22-3.59,12.77,9.18,28.63,29.2,28.92,20.02.29,22.53,3.66,31.72-18.08,9.18-21.67,28.13-55.32,32.86-81.44,4.66-26.19-7.18-53.46-59.84-50.95-52.67,2.58-118.54,35.02-151.26,92.35s-6.96,88.98,9.97,97.08c0,0-65.01,35.52-67.52,79.22-2.58,43.77,26.41,77.07,116.75,67.59,90.41-9.47,133.54-76.99,152.41-112.66,18.94-35.59,30.07-54.46,30.07-54.46,0,0,18.87,3.01,18.66,16.65-.29,13.63-28.99,65.08-22.32,89.55,6.74,24.47,36.74,34.51,61.21,23.11s30.35-25.33,30.35-25.33c0,0,14.42,32.29,48.08,23.39s47.86-36.16,47.86-36.16c0,0,9.18,20.02,29.2,24.47,20.02,4.45,44.2-1.65,44.2-1.65,0,0-104.05,65.37-118.75,104.55-14.71,39.25,58.98,69.24,101.82,21.45,42.77-47.86,67.81-118.47,67.81-118.47,0,0,48.15-30.35,63.72-55.4,0,0,6.67,49.8,60.06,47.29,53.39-2.51,71.47-30.57,71.47-30.57,0,0,28.92,12.49,61.71-11.12,32.86-23.68,54.82-61.49,44.56-70.1-10.33-8.61-20.02,5.02-26.19,12.49-6.1,7.53-42.26,38.1-42.26,38.1,0,0,25.04-46.14,27.84-81.44,2.73-35.3-3.37-77.57-61.49-78.14s-100.1,50.3-117.61,91.49-19.23,48.94-19.23,48.94l-39.47,36.74ZM46.42,696.1h11.62l-12.49-75.63h-15.36l-12.56,75.63h11.48l2.44-16.72h12.34l2.51,16.72Zm-13.27-27.77l4.59-31.64,4.66,31.64h-9.26Zm33.8,27.77h11.41v-30.64h6.53c10.91,0,17.94-7.18,17.94-18.08v-8.83c0-10.91-7.03-18.08-17.94-18.08h-17.94v75.63Zm11.41-41.47v-23.32h5.96c4.45,0,7.03,2.58,7.03,7.03v9.26c0,4.45-2.58,7.03-7.03,7.03h-5.96Zm34.08,41.47h11.41v-30.64h6.53c10.91,0,17.94-7.18,17.94-18.08v-8.83c0-10.91-7.03-18.08-17.94-18.08h-17.94v75.63Zm11.41-41.47v-23.32h5.96c4.45,0,7.03,2.58,7.03,7.03v9.26c0,4.45-2.58,7.03-7.03,7.03h-5.96Zm55.04,41.47h11.62l-12.49-75.63h-15.36l-12.56,75.63h11.48l2.44-16.72h12.34l2.51,16.72Zm-13.35-27.77l4.66-31.64,4.66,31.64h-9.33Zm71.47,27.77l-9.62-33.8c4.95-3.01,7.89-8.4,7.89-15.43v-8.32c0-10.91-7.03-18.08-17.94-18.08h-17.94v75.63h11.41v-31.21h5.96l8.32,31.21h11.91Zm-26.19-64.8h5.96c4.45,0,7.03,2.58,7.03,7.03v8.75c0,4.38-2.58,7.03-7.03,7.03h-5.96v-22.82Zm35.59,64.8h32.51v-10.76h-21.1v-22.17h16.79v-10.76h-16.79v-21.1h21.1v-10.84h-32.51v75.63Zm42.12,0h31.86v-10.76h-20.38v-64.87h-11.48v75.63Zm209.74-390.85c18.3,0,33.08,10.91,33.08,24.4s-14.78,24.4-33.08,24.4-33.15-10.91-33.15-24.4,14.85-24.4,33.15-24.4Zm256.6,178.67c-5.81-9.97,1.72-51.16,11.7-71.76,10.05-20.59,35.88-75.63,59.56-64.8,23.61,10.84-4.74,64.51-4.74,64.51-8.11-12.49-31.72-21.1-43.41,3.66-11.7,24.76,11.98,58.62,11.98,58.62-11.41,17.58-29.2,19.8-35.09,9.76Zm-128.44-107.63c3.44,7.53-34.23,127.01-64.51,118.75-30.28-8.25,23.89-95.94,36.67-110.93,12.84-15.07,24.76-14.49,27.84-7.82Zm-125.28,262.84c.79-6.96,37.53-32.86,37.53-32.86-19.16,41.19-38.39,39.82-37.53,32.86Z"/>
</svg>